<?xml version="1.0" standalone="no"?>
<!DOCTYPE svg PUBLIC "-//W3C//DTD SVG 20010904//EN"
 "http://www.w3.org/TR/2001/REC-SVG-20010904/DTD/svg10.dtd">
<svg version="1.0" xmlns="http://www.w3.org/2000/svg"
 width="100.000000pt" height="100.000000pt" viewBox="0 0 100.000000 100.000000"
 preserveAspectRatio="xMidYMid meet">

<g transform="translate(0.000000,100.000000) scale(0.100000,-0.100000)"
fill="#000000" stroke="none">
<path d="M107 913 c-4 -3 -7 -24 -7 -47 0 -22 -9 -73 -21 -114 -13 -47 -18
-82 -13 -96 5 -11 11 -145 14 -296 l5 -275 415 0 415 0 5 275 c3 151 10 285
14 297 5 13 1 43 -9 80 -10 32 -21 85 -24 118 l-6 60 -391 3 c-215 1 -393 -1
-397 -5z m753 -53 c0 -20 -7 -20 -360 -20 -353 0 -360 0 -360 20 0 20 7 20
360 20 353 0 360 0 360 -20z m25 -125 c14 -53 15 -68 5 -81 -19 -22 -53 -13
-68 19 -7 15 -17 27 -22 27 -5 0 -15 -12 -22 -27 -9 -20 -21 -28 -38 -28 -17
0 -29 8 -38 28 -7 15 -17 27 -22 27 -5 0 -15 -12 -22 -27 -9 -20 -21 -28 -38
-28 -17 0 -29 8 -38 28 -7 15 -17 27 -22 27 -5 0 -15 -12 -22 -27 -9 -20 -21
-28 -38 -28 -17 0 -29 8 -38 28 -7 15 -17 27 -22 27 -5 0 -15 -12 -22 -27 -9
-20 -21 -28 -38 -28 -17 0 -29 8 -38 28 -7 15 -17 27 -22 27 -5 0 -15 -12 -22
-27 -9 -20 -21 -28 -38 -28 -17 0 -29 8 -38 28 -7 15 -17 27 -22 27 -5 0 -15
-12 -22 -27 -15 -32 -49 -41 -68 -19 -10 13 -9 28 5 81 l18 65 367 0 367 0 18
-65z m-622 -128 c20 1 46 2 57 2 11 0 38 0 60 0 22 0 49 0 60 0 11 0 38 0 60
0 22 0 49 0 60 0 11 0 38 0 60 0 22 0 49 0 60 0 11 0 38 0 60 0 22 0 48 0 58
1 9 0 32 -2 50 -6 l32 -6 0 -239 0 -239 -40 0 -40 0 -2 208 -3 207 -295 0
-295 0 -3 -207 -2 -208 -40 0 -40 0 0 240 0 240 23 0 c12 0 29 5 37 10 8 5 22
7 30 3 8 -4 32 -6 53 -6z m217 -297 l0 -190 -120 0 -120 0 0 190 0 190 120 0
120 0 0 -190z m280 0 l0 -190 -120 0 -120 0 0 190 0 190 120 0 120 0 0 -190z"/>
<path d="M404 329 c-10 -17 13 -36 27 -22 12 12 4 33 -11 33 -5 0 -12 -5 -16
-11z"/>
<path d="M564 329 c-10 -17 13 -36 27 -22 12 12 4 33 -11 33 -5 0 -12 -5 -16
-11z"/>
</g>
</svg>
