<?xml version="1.0" standalone="no"?>
<!DOCTYPE svg PUBLIC "-//W3C//DTD SVG 20010904//EN"
 "http://www.w3.org/TR/2001/REC-SVG-20010904/DTD/svg10.dtd">
<svg version="1.0" xmlns="http://www.w3.org/2000/svg"
 width="100.000000pt" height="100.000000pt" viewBox="0 0 100.000000 100.000000"
 preserveAspectRatio="xMidYMid meet">

<g transform="translate(0.000000,100.000000) scale(0.100000,-0.100000)"
fill="#000000" stroke="none">
<path d="M96 841 l-38 -39 14 -48 14 -49 57 -3 c49 -3 57 -6 57 -22 0 -15 -7
-20 -29 -20 -42 0 -76 -32 -126 -118 l-45 -77 0 -116 c0 -100 3 -118 18 -132
10 -10 28 -17 41 -17 13 0 25 -9 30 -22 18 -46 59 -73 111 -73 52 0 93 27 111
72 8 23 11 23 189 23 178 0 181 0 189 -22 18 -46 59 -73 111 -73 52 0 93 27
111 73 5 13 17 22 29 22 11 0 29 9 40 20 28 28 28 141 1 187 -22 36 -25 37
-144 57 l-87 15 -81 85 c-61 65 -89 87 -115 92 -24 4 -34 12 -34 25 0 16 8 19
55 19 l55 0 26 51 c15 31 22 55 16 61 -5 5 -58 22 -118 38 -99 27 -124 30
-264 30 l-156 0 -38 -39z m437 -27 c51 -14 93 -27 95 -29 2 -2 -1 -13 -8 -24
-10 -20 -18 -21 -259 -21 l-249 0 -5 28 c-4 19 1 34 16 50 19 21 28 22 169 22
130 0 161 -3 241 -26z m-53 -134 c0 -19 -7 -20 -120 -20 -113 0 -120 1 -120
20 0 19 7 20 120 20 113 0 120 -1 120 -20z m-140 -130 l0 -70 -140 0 c-77 0
-140 2 -140 5 0 11 64 111 78 123 10 8 49 12 109 12 l93 0 0 -70z m285 0 l69
-70 -157 0 -157 0 0 70 0 70 88 0 88 0 69 -70z m210 -126 c117 -20 127 -29
123 -113 -2 -53 -6 -66 -20 -69 -11 -2 -21 5 -27 20 -18 46 -59 73 -111 73
-52 0 -93 -27 -111 -72 -8 -23 -11 -23 -189 -23 -178 0 -181 0 -189 23 -18 45
-59 72 -111 72 -52 0 -93 -27 -111 -72 -5 -14 -17 -23 -29 -23 -19 0 -20 6
-20 100 l0 100 353 0 c275 0 372 -3 442 -16z m-580 -149 c50 -49 15 -135 -55
-135 -41 0 -80 39 -80 80 0 41 39 80 80 80 19 0 40 -9 55 -25z m600 0 c50 -49
15 -135 -55 -135 -41 0 -80 39 -80 80 0 41 39 80 80 80 19 0 40 -9 55 -25z"/>
</g>
</svg>
