<?xml version="1.0" standalone="no"?>
<!DOCTYPE svg PUBLIC "-//W3C//DTD SVG 20010904//EN"
 "http://www.w3.org/TR/2001/REC-SVG-20010904/DTD/svg10.dtd">
<svg version="1.0" xmlns="http://www.w3.org/2000/svg"
 width="100.000000pt" height="100.000000pt" viewBox="0 0 100.000000 100.000000"
 preserveAspectRatio="xMidYMid meet">

<g transform="translate(0.000000,100.000000) scale(0.100000,-0.100000)"
fill="#000000" stroke="none">
<path d="M140 910 l0 -50 -50 0 -50 0 0 -390 0 -390 120 0 c113 0 120 1 120
20 0 19 -7 20 -100 20 l-100 0 0 350 0 350 50 0 50 0 0 50 0 50 200 0 200 0 0
-30 0 -30 -180 0 c-173 0 -180 -1 -180 -20 0 -19 7 -20 230 -20 l230 0 0 -110
c0 -103 1 -110 20 -110 19 0 20 7 20 130 l0 130 -50 0 -50 0 0 50 0 50 -240 0
-240 0 0 -50z"/>
<path d="M160 740 c0 -17 7 -20 40 -20 33 0 40 3 40 20 0 17 -7 20 -40 20 -33
0 -40 -3 -40 -20z"/>
<path d="M340 740 c0 -17 7 -20 40 -20 33 0 40 3 40 20 0 17 -7 20 -40 20 -33
0 -40 -3 -40 -20z"/>
<path d="M520 740 c0 -17 7 -20 40 -20 33 0 40 3 40 20 0 17 -7 20 -40 20 -33
0 -40 -3 -40 -20z"/>
<path d="M160 640 c0 -17 7 -20 40 -20 33 0 40 3 40 20 0 17 -7 20 -40 20 -33
0 -40 -3 -40 -20z"/>
<path d="M340 640 c0 -17 7 -20 40 -20 33 0 40 3 40 20 0 17 -7 20 -40 20 -33
0 -40 -3 -40 -20z"/>
<path d="M520 640 c0 -17 7 -20 40 -20 33 0 40 3 40 20 0 17 -7 20 -40 20 -33
0 -40 -3 -40 -20z"/>
<path d="M501 582 c-57 -28 -75 -62 -77 -144 -2 -65 1 -78 27 -121 45 -73 40
-91 -31 -127 -65 -33 -100 -75 -100 -122 l0 -28 320 0 320 0 0 23 c0 42 -37
85 -100 117 -68 34 -71 43 -40 115 28 66 28 172 -1 209 -11 14 -27 26 -34 26
-8 0 -18 8 -24 17 -8 15 -15 16 -52 6 -41 -11 -46 -10 -87 18 -50 34 -74 36
-121 11z m76 -36 c4 -8 17 -15 28 -17 31 -6 52 -52 39 -87 -7 -19 -8 -35 -2
-46 7 -12 5 -22 -3 -33 -32 -38 -49 -132 -30 -162 5 -8 35 -28 67 -45 31 -17
64 -41 72 -54 l14 -22 -202 0 -202 0 14 22 c8 13 41 37 72 54 32 17 62 37 67
45 16 26 9 76 -18 124 -18 33 -27 66 -30 106 -2 50 1 62 22 88 14 16 36 32 48
34 12 2 25 5 29 6 4 0 11 -5 15 -13z m178 -46 c17 -8 33 -19 37 -25 9 -12 8
-125 -1 -140 -13 -21 -31 -81 -31 -102 0 -39 12 -54 64 -80 54 -27 86 -51 86
-65 0 -4 -24 -8 -52 -8 -51 0 -54 2 -73 38 -15 27 -37 46 -82 70 -72 38 -76
51 -42 129 15 31 23 72 24 116 1 47 6 72 16 78 8 5 16 7 19 6 3 -1 19 -9 35
-17z"/>
<path d="M160 540 c0 -17 7 -20 40 -20 33 0 40 3 40 20 0 17 -7 20 -40 20 -33
0 -40 -3 -40 -20z"/>
<path d="M340 540 c0 -23 38 -28 58 -8 20 20 14 28 -23 28 -28 0 -35 -4 -35
-20z"/>
<path d="M160 440 c0 -17 7 -20 40 -20 33 0 40 3 40 20 0 17 -7 20 -40 20 -33
0 -40 -3 -40 -20z"/>
<path d="M340 440 c0 -15 7 -20 25 -20 18 0 25 5 25 20 0 15 -7 20 -25 20 -18
0 -25 -5 -25 -20z"/>
<path d="M160 340 c0 -17 7 -20 40 -20 33 0 40 3 40 20 0 17 -7 20 -40 20 -33
0 -40 -3 -40 -20z"/>
<path d="M340 340 c0 -16 7 -20 35 -20 33 0 35 2 25 20 -6 12 -21 20 -35 20
-18 0 -25 -5 -25 -20z"/>
<path d="M160 240 c0 -17 7 -20 40 -20 33 0 40 3 40 20 0 17 -7 20 -40 20 -33
0 -40 -3 -40 -20z"/>
<path d="M340 240 c0 -17 7 -20 40 -20 33 0 40 3 40 20 0 17 -7 20 -40 20 -33
0 -40 -3 -40 -20z"/>
</g>
</svg>
