<?xml version="1.0" encoding="UTF-8"?><svg id="Camada_1" xmlns="http://www.w3.org/2000/svg" viewBox="0 0 755.7 636.2"><path d="M755.7,214.45v159.04c-.36,.54-.79,1.04-1.07,1.62-6.03,12.5-15.85,18.76-29.85,18.59-13.33-.16-26.67-.04-40-.04h-13.27c.63,1.93,.98,3.18,1.43,4.39,7.42,19.96,14.87,39.91,22.26,59.89,.63,1.69,1.27,3.51,1.27,5.27,.07,47.51,.23,95.01-.04,142.52-.1,17.03-13.12,30.06-29.67,30.27-20.66,.26-41.33,.26-62,0-15.66-.2-28.04-12.19-29.21-27.95-.41-5.57-.07-11.2-.07-17.02h-212.33c0,4.6,0,8.9,0,13.2-.04,18.87-12.83,31.79-31.6,31.83-18.83,.04-37.67,.02-56.5,0-20.49,0-32.92-12.48-32.93-33.03,0-42.34,0-84.68,0-127.02v-6.11H120.78c0,5.37,.06,10.35-.01,15.33-.24,15.31-12.02,28.79-27.25,29.27-21.97,.7-43.97,.44-65.95,.1C12.25,514.38-.12,499.24,0,485.18c.39-47.5,.13-95.01,.2-142.52,0-2.27,.37-4.67,1.15-6.79,12.35-33.54,24.71-67.08,37.26-100.55,6.77-18.06,14.06-35.94,20.86-53.99,7.05-18.7,19.92-31.84,38.15-39.36,11.81-4.87,23.95-9.28,36.32-12.37,25.49-6.36,51.65-7.79,77.82-8.25,33.01-.58,65.98,.09,98.58,6.12,7.96,1.47,15.77,3.75,23.91,5.72,.78-1.87,1.58-3.66,2.29-5.5,8.66-22.51,17.48-44.97,25.91-67.57,7.14-19.15,20.59-31.83,38.98-39.89,23.26-10.19,47.65-15.62,72.86-17.87,33.25-2.97,66.52-2.99,99.81-.98,27.94,1.68,55.08,7.17,81.29,17.02,18.85,7.08,32.55,19.24,39.81,38.65,12.01,32.09,24.75,63.91,37.09,95.88,7.9,20.47,15.61,41.01,23.4,61.51Zm-286.81,194.56c43.65,0,87.3,.26,130.95-.2,9.65-.1,19.36-2.33,28.88-4.33,5.31-1.12,7.96-5.38,7.07-11.01-.68-4.25-1.34-8.59-2.82-12.59-8.53-23.09-17.51-46.01-25.86-69.16-2.79-7.73-7.52-13.19-14.45-17.06-19.45-10.85-40.34-17.03-62.47-19.18-40.72-3.95-81.44-3.91-122.17,.01-21.83,2.1-42.35,8.36-61.49,19.09-7.64,4.29-13.4,10.11-16.3,18.73-2.6,7.71-6.11,15.11-9.02,22.72-6.05,15.85-12.1,31.69-17.91,47.63-4.91,13.48-1.61,19.93,12.37,22.89,7.75,1.64,15.83,2.31,23.76,2.35,43.15,.22,86.3,.1,129.45,.1Zm-105.58-266.28c7.2,6.93,14.08,12.91,20.1,19.65,2.57,2.87,4.64,4.31,8.52,4.31,88.98-.1,177.96-.06,266.94-.13,6.47,0,13-.33,19.41-1.21,18.02-2.49,21.79-8.14,15.75-25.31-8.12-23.06-17.37-45.71-25.49-68.77-3.53-10.03-9.93-16.55-19.1-21.17-20.81-10.49-42.9-15.94-66.06-17.74-35.94-2.8-71.85-2.76-107.78,.05-23.5,1.84-45.9,7.44-66.72,18.8-8.64,4.71-15.42,10.88-18.35,20.69-1.18,3.97-3.08,7.72-4.57,11.61-7.72,20.15-15.41,40.32-22.64,59.24Zm23.31,104.89c-7.13-18.54-14.67-37.21-21.42-56.15-3.2-8.97-8.86-14.96-16.99-19.23-18.33-9.62-37.77-15.61-58.35-17.71-41.71-4.25-83.44-4.23-125.17-.08-21.49,2.14-41.66,8.44-60.48,18.99-7.47,4.19-13.28,9.83-16.1,18.29-1.89,5.67-4.52,11.08-6.66,16.68-6.82,17.86-13.68,35.72-20.32,53.65-5.13,13.87-1.8,20.05,12.23,23.51,1.61,.4,3.25,.91,4.88,.97,12.81,.43,25.61,1.05,38.42,1.07,62.65,.11,125.31,.06,187.96-.02,1.97,0,4.81-.35,5.76-1.63,11.04-14.95,26.68-22.76,43.64-28.42,10.69-3.56,21.55-6.58,32.59-9.91Zm264.7,179.72c-5.36,2.55-10.05,5.95-15.23,7-11.35,2.3-22.93,4.75-34.43,4.8-86.82,.39-173.65,.24-260.48,.19-18.71-.01-37.31-.77-53.76-12.59-4.49,11.96-8.91,23.41-13.05,34.96-1.09,3.05-1.81,6.42-1.82,9.65-.14,26.33-.08,52.67-.08,79.01,0,8.94,1.09,10.03,10.06,10.03,124.49,0,248.98,0,373.47,0,8.83,0,10.16-1.29,10.17-10.1,.02-26.5,.01-53,0-79.51,0-1.49,.15-3.11-.35-4.45-4.78-13.06-9.68-26.08-14.5-38.99Zm-355.83-109.35c-2.95,0-4.92,0-6.88,0-63.64,0-127.29-.02-190.93,.01-18.46,.01-36.67-.94-52.57-12.4-4.83,12.77-9.58,25.19-14.18,37.66-.67,1.82-.79,3.92-.79,5.88-.05,27.16-.05,54.32-.02,81.48,0,6.76,1.89,8.71,8.56,8.71,69.14,.02,138.28,0,207.42,.07,2.97,0,4.42-.9,5.44-3.73,4.22-11.74,8.71-23.37,13.05-35.07,6.11-16.5,12.13-33.04,18.28-49.53,4-10.73,8.15-21.4,12.62-33.1Zm103.85-121.03c6.04,15.59,11.75,30.46,17.66,45.26,.36,.9,2.27,1.71,3.44,1.69,21.3-.4,42.61-1.56,63.91-1.3,43.47,.52,86.24,5.2,125.87,25.34,.03-.4,.19-.79,.06-1.01-12.13-19.89-.92-49.34,27.86-53.8,15.44-2.39,31.62-1.45,47.33-.26,13.27,1,23.71,12.12,25.62,25.11,1.97,13.41-3.74,24.11-14.74,31.12-9.62,6.13-20.12,10.97-30.54,15.69-4.11,1.86-9.08,2.64-13.63,2.54-8.58-.19-17.14-1.37-24.01-1.98,3.45,8.38,7.74,18.25,11.52,28.32,1.3,3.46,3.05,4.42,6.54,4.4,23.83-.13,47.66-.06,71.49-.08,7.23,0,8.96-1.71,8.96-8.72,.01-27.17,0-54.33,0-81.5,0-1.33,.21-2.78-.23-3.97-4.85-13.08-9.81-26.11-14.87-39.51-9.93,7.6-21.1,10.59-32.81,11.78-6.45,.65-12.96,.86-19.45,.87-84.32,.05-168.64,.04-252.96,.04h-7.02Zm267.13,166.19h59.85v-14.83h-59.85v14.83ZM30.32,484.36h59.97v-14.93H30.32v14.93Zm302.33,106.31h-59.77v14.68h59.77v-14.68Zm333.19,.13h-59.89v14.63h59.89v-14.63Zm14.25-346.79c-.14-.49-.28-.98-.42-1.47-12.07,0-24.15-.22-36.22,.12-4.11,.12-7.41,2.82-7.47,7.3-.06,4.32,3.31,6.23,7.07,7.22,1.1,.29,2.31,.23,3.47,.27,13.29,.48,22.56-8.53,33.57-13.44Z"/><path d="M602.12,453.93c7.96,.45,16.08,.07,23.84,1.54,12.43,2.35,21.03,10.08,24.07,22.55,2.94,12.08-.8,23.06-10.5,30.37-17.59,13.27-36.51,24.06-59.99,21.22-19.88-2.4-35.49-19.64-34.64-38.16,.91-19.88,17.43-36.14,37.72-36.9,6.49-.24,12.99-.04,19.48-.04,0-.2,.01-.39,.02-.59Zm17.24,32.38c-.15-.52-.31-1.05-.46-1.57-11.77,0-23.55-.19-35.31,.09-4.98,.12-8.38,3.88-8.13,7.77,.25,3.92,3.82,6.66,8.89,7.09,13.99,1.2,23.72-7.99,35.01-13.38Z"/><path d="M351.63,530.03c-9.65,.03-18.9-1.81-27.38-6.5-8.42-4.66-17.17-8.97-24.82-14.71-10.7-8.03-14.4-22.04-10.32-33.56,4.2-11.84,15.9-20.44,29.13-20.69,13.48-.26,27.07-.95,40.44,.34,20.89,2.01,35.78,19.67,34.8,39.38-.97,19.49-18.45,35.36-39.36,35.75-.83,.02-1.67,0-2.5,0Zm-32.57-45.16c-.14,.36-.28,.72-.42,1.08,2.3,1.41,4.54,2.92,6.92,4.19,3.8,2.04,7.84,3.68,11.51,5.93,5.55,3.41,11.55,4.01,17.78,3.54,4.71-.36,8.26-3.46,8.2-7.19-.07-4.71-3.38-7.27-7.34-7.41-12.2-.41-24.43-.15-36.64-.15Z"/><path d="M94.81,332.78c8.78,.57,17.83-.03,26.29,1.93,28.82,6.68,39.61,39.27,20.46,60.81-8.32,9.36-19.21,13.44-31.64,13.4-21.13-.07-38.38-10.04-54.25-22.47-9.73-7.62-12.77-21.85-8.78-32.72,4.19-11.43,15.91-19.93,28.39-20.34,6.49-.21,12.99-.04,19.49-.04l.03-.56Zm-18.19,30.78l-.51,1.38c6.39,3.39,12.55,7.36,19.24,9.99,5.24,2.06,11.09,3.02,16.74,3.41,5.04,.35,8.58-3.22,8.67-7.1,.1-3.9-3.31-7.48-8.35-7.59-11.93-.27-23.86-.09-35.79-.09Z"/></svg>