<?xml version="1.0" standalone="no"?>
<!DOCTYPE svg PUBLIC "-//W3C//DTD SVG 20010904//EN"
 "http://www.w3.org/TR/2001/REC-SVG-20010904/DTD/svg10.dtd">
<svg version="1.0" xmlns="http://www.w3.org/2000/svg"
 width="100.000000pt" height="100.000000pt" viewBox="0 0 100.000000 100.000000"
 preserveAspectRatio="xMidYMid meet">

<g transform="translate(0.000000,100.000000) scale(0.100000,-0.100000)"
fill="#000000" stroke="none">
<path d="M129 922 c-53 -35 -109 -120 -109 -166 0 -27 52 -86 76 -86 18 0 18
-9 -1 -53 -20 -48 -19 -93 4 -142 37 -81 101 -115 214 -115 l74 0 -13 -52
c-24 -91 -19 -116 27 -159 66 -61 134 -83 259 -83 125 0 193 22 260 84 l43 40
-6 60 c-4 33 -13 75 -20 92 -10 23 -11 41 -4 61 5 16 6 47 3 70 -7 44 -39 107
-55 107 -4 0 -30 -17 -57 -38 -41 -32 -54 -37 -79 -31 -16 4 -56 7 -87 8 -58
1 -58 1 -58 31 0 17 -7 47 -15 67 -19 44 -19 53 -1 53 24 0 76 59 76 86 0 56
-84 167 -137 180 -15 4 -39 2 -55 -4 -21 -8 -44 -8 -84 1 -41 8 -65 8 -100 -1
-31 -8 -51 -9 -64 -2 -28 15 -62 12 -91 -8z m71 -27 c0 -3 -10 -16 -21 -28
-29 -30 -59 -96 -59 -129 0 -16 -5 -28 -12 -28 -17 0 -48 31 -48 48 0 24 47
98 77 121 26 19 63 28 63 16z m216 -14 c68 -31 110 -105 102 -179 -3 -25 2
-48 19 -77 28 -49 29 -94 3 -145 -24 -47 -81 -80 -140 -80 -40 0 -40 0 -40 39
0 30 7 46 30 69 32 32 36 47 20 72 -7 11 -27 15 -70 15 -43 0 -63 -4 -70 -15
-16 -25 -12 -40 20 -72 23 -23 30 -39 30 -69 0 -39 0 -39 -40 -39 -59 0 -116
33 -140 80 -26 51 -25 96 3 145 17 29 22 52 19 77 -12 102 75 198 178 198 19
0 53 -9 76 -19z m125 -2 c30 -21 79 -95 79 -119 0 -18 -30 -50 -47 -50 -8 0
-13 11 -13 28 0 33 -30 99 -59 129 -11 12 -21 25 -21 28 0 12 34 4 61 -16z
m-171 -328 c0 -5 -7 -14 -15 -21 -12 -10 -18 -10 -30 0 -23 19 -18 30 15 30
17 0 30 -4 30 -9z m530 -104 c0 -16 -4 -37 -10 -47 -7 -13 -6 -28 4 -52 8 -18
17 -58 21 -89 7 -54 6 -56 -27 -84 -65 -55 -113 -70 -228 -70 -115 0 -163 15
-227 69 -36 31 -39 47 -22 126 10 49 13 52 62 74 29 13 69 42 90 66 l38 43 72
-6 c40 -3 81 -8 92 -12 15 -4 34 4 65 29 l45 36 12 -28 c7 -15 12 -40 13 -55z"/>
<path d="M244 686 c-10 -26 4 -48 28 -44 17 2 23 10 23 28 0 18 -6 26 -23 28
-13 2 -25 -3 -28 -12z"/>
<path d="M384 686 c-10 -26 4 -48 28 -44 17 2 23 10 23 28 0 18 -6 26 -23 28
-13 2 -25 -3 -28 -12z"/>
<path d="M564 326 c-10 -26 4 -48 28 -44 33 4 33 52 0 56 -13 2 -25 -3 -28
-12z"/>
<path d="M704 326 c-10 -26 4 -48 28 -44 17 2 23 10 23 28 0 18 -6 26 -23 28
-13 2 -25 -3 -28 -12z"/>
<path d="M611 251 c-12 -8 -12 -13 3 -35 15 -23 15 -27 1 -32 -8 -3 -15 -15
-15 -26 0 -17 4 -19 23 -13 28 9 46 9 75 0 18 -6 22 -4 22 13 0 11 -7 23 -15
26 -14 5 -14 9 1 32 15 22 15 27 3 35 -18 11 -80 11 -98 0z"/>
</g>
</svg>
