<?xml version="1.0" encoding="UTF-8"?>
<svg id="Camada_1" data-name="Camada 1" xmlns="http://www.w3.org/2000/svg" viewBox="0 0 421.02 437.39">
  <path d="m0,381.04V92.96h400v288.08H0ZM389.43,110.04H10.89c6.71,11.77,9.73,22.1,16.54,28.21,46.04,41.33,92.76,81.91,139.51,122.44,25.52,22.12,40.9,22.01,66.41-.14,46.21-40.14,92.5-80.2,138.04-121.1,7.25-6.51,10.76-17.21,18.05-29.4ZM12.78,363.91h373.55c-3.02-9-3.23-18.69-8.11-22.71-36.38-30.05-73.68-58.98-110.37-88.01q-67.75,50.91-135.44.02c-36.22,28.65-73.04,57.16-108.93,86.8-5.44,4.49-6.56,14.21-10.7,23.9Zm108.19-122.13c-34.57-30.17-68.09-59.41-103.58-90.38v172.26c35.43-28.01,68.58-54.22,103.58-81.89Zm262-90.51c-35.8,31.18-69.11,60.2-103.89,90.5,35.18,27.79,68.64,54.22,103.89,82.05v-172.55Z"/>
</svg>