<?xml version="1.0" encoding="UTF-8"?>
<svg id="Camada_1" data-name="Camada 1" xmlns="http://www.w3.org/2000/svg" viewBox="0 0 421.02 437.39">
  <path d="m17.9,82.04h45.25v-45.38h218.73v45.35h45.59v182.2h2.8c8.08,0,16.17-.01,24.25,0,15.48.02,27.62,12.48,27.55,27.95-.1,22.27.02,44.54.02,66.81,0,17.48.08,34.97-.1,52.45-.13,12.48-10.68,23.99-23.04,25.53-2.28.28-4.59.43-6.89.43-56.18.02-112.36.01-168.54.02-12.52,0-21.6-5.45-26.81-16.95-.64-1.41-1.62-1.33-2.78-1.33-27.55,0-55.11,0-82.66,0-16.99,0-33.99,0-50.98,0-.74,0-1.47,0-2.39,0V82.04Zm18.26,18.25v300.35h118.18v-3.14c0-35.14,0-70.28,0-105.42,0-15.61,12.28-27.88,27.91-27.88,41.33,0,82.65,0,123.98,0h2.82V100.18H99.92v-18.21h163.6v-27H81.45v45.32h-45.29Zm232.26,182.2c-28.29,0-56.58,0-84.87,0-7.67,0-10.93,3.3-10.93,11,0,38.43.1,76.87-.08,115.3-.03,5.93,4.33,10.42,10.42,10.4,56.58-.16,113.16-.17,169.73,0,6.48.02,11.33-3.32,11.29-11.31-.19-38.1-.08-76.21-.09-114.31,0-1.23-.02-2.48-.22-3.69-.52-3.05-2.18-5.45-5.09-6.47-1.96-.69-4.18-.89-6.28-.89-27.96-.05-55.92-.04-83.88-.04Z"/>
  <path d="m154.39,145.68v-17.92h36.36v17.92h-36.36Z"/>
  <path d="m154.52,173.19h36.2v18.08h-36.2v-18.08Z"/>
  <path d="m190.84,218.85v17.9h-36.35v-17.9h36.35Z"/>
  <path d="m72.49,145.71v-18h36.23v18h-36.23Z"/>
  <path d="m108.71,173.22v18.06h-36.2v-18.06h36.2Z"/>
  <path d="m72.51,218.78h36.18v18h-36.18v-18Z"/>
  <path d="m108.63,282.41h-36.14v-18.08h36.14v18.08Z"/>
  <path d="m72.49,327.87v-17.99h36.13v17.99h-36.13Z"/>
  <path d="m108.7,355.41v17.99h-36.18v-17.99h36.18Z"/>
  <path d="m236.49,145.68v-17.93h36.16v17.93h-36.16Z"/>
  <path d="m236.49,191.22v-17.95h36.17v17.95h-36.17Z"/>
  <path d="m272.73,218.8v17.98h-36.18v-17.98h36.18Z"/>
  <path d="m318.21,400.72h-100.03c.47-6.66,3.52-11.74,9.05-14.86,4.76-2.69,9.97-4.6,15-6.81,2.71-1.19,5.52-2.16,8.16-3.48,3.42-1.71,5.86-4.19,5.65-8.46-.1-1.97.16-3.95.12-5.92-.01-.66-.4-1.34-.71-1.96-1.61-3.28-3.23-6.56-4.91-9.81-.4-.78-.88-1.67-1.57-2.14-2.68-1.84-4.21-7.53-2.35-10.24.97-1.42.93-2.6.57-4.08-1.41-5.73-1.99-11.53-.85-17.38,1.25-6.42,5.04-10.86,11.12-13.11,5.27-1.95,10.79-2.39,16.27-1.05,1.9.46,3.56,1.88,5.34,2.84.68.37,1.35.84,2.08,1.02,4.92,1.26,7.99,4.33,9.34,9.21,1.82,6.62.35,13.04-1.13,19.48-.16.71-.22,1.64.1,2.24,2.28,4.25,1.34,8.47-2.59,11.41-.44.33-.73,1.02-.86,1.59-.87,3.73-2.2,7.22-4.89,10.06-.11.12-.26.22-.34.35-1.82,3.24.24,12.77,3.51,14.61,3.63,2.04,7.5,3.7,11.36,5.26,5.78,2.35,11.82,4.18,16.56,8.5,3.66,3.34,5.9,7.43,6.01,12.73Z"/>
</svg>