<?xml version="1.0" encoding="UTF-8"?>
<svg id="Camada_1" data-name="Camada 1" xmlns="http://www.w3.org/2000/svg" viewBox="0 0 421.02 437.39">
  <path d="m13.28,235.57c0-48.14-.13-96.28.04-144.42.13-36.75,16.37-53.52,52.35-53.59,89.51-.19,179.03-.19,268.54,0,35.21.07,52.26,16.71,52.34,51.35.23,97.02-.31,194.04.44,291.05.14,17.75-5.38,23.45-22.92,22.74-30.28-1.22-60.77,1.32-90.94-.86-24.3-1.76-43.14,4.24-57.48,24.01-10.38,14.31-21,14.32-31.38-.09-14.28-19.84-33.2-25.66-57.5-23.93-30.91,2.2-62.12-.09-93.17.79-15.39.44-20.85-4.8-20.61-20.42.76-48.87.28-97.76.27-146.64Zm186.22,184.49c19.81-33.71,47.06-38.04,78.3-35.91,29.89,2.04,60.02.44,89.26.44V109.9H32.48v274.69c26.47,0,51.53.25,76.58-.06,33.7-.42,69.25-7.03,90.44,35.54ZM32.09,89.78h335.74c-.39-25.54-7.68-34.28-30.48-34.36-91.61-.32-183.23-.32-274.84,0-22.8.08-30.09,8.85-30.42,34.36Z"/>
  <path d="m216.19,356.68h-32.46v-148.89h32.46v148.89Z"/>
  <path d="m216.01,179.17h-32.11v-33.55h32.11v33.55Z"/>
</svg>