<?xml version="1.0" encoding="UTF-8" standalone="no"?>
<svg
   id="icones"
   viewBox="0 0 236.84 236.84"
   version="1.1"
   sodipodi:docname="[icone]-mais.svg"
   inkscape:version="1.1 (c68e22c387, 2021-05-23)"
   xmlns:inkscape="http://www.inkscape.org/namespaces/inkscape"
   xmlns:sodipodi="http://sodipodi.sourceforge.net/DTD/sodipodi-0.dtd"
   xmlns="http://www.w3.org/2000/svg"
   xmlns:svg="http://www.w3.org/2000/svg">
  <defs
     id="defs114" />
  <sodipodi:namedview
     id="namedview112"
     pagecolor="#ffffff"
     bordercolor="#666666"
     borderopacity="1.0"
     inkscape:pageshadow="2"
     inkscape:pageopacity="0.0"
     inkscape:pagecheckerboard="0"
     showgrid="false"
     inkscape:snap-bbox="false"
     inkscape:zoom="1.1125655"
     inkscape:cx="107.85882"
     inkscape:cy="119.99294"
     inkscape:window-width="1920"
     inkscape:window-height="1017"
     inkscape:window-x="1432"
     inkscape:window-y="-8"
     inkscape:window-maximized="1"
     inkscape:current-layer="icones" />
  <path
     id="path109"
     inkscape:transform-center-x="13.482353"
     inkscape:transform-center-y="86.287059"
     d="m 121.18604,103.14062 -106.388671,0.2754 a 15.85,15.85 0 0 0 -5.4199196,30.2832 H 161.88135 v -30.5586 z" />
  <path
     id="path109-0"
     inkscape:transform-center-x="13.482353"
     inkscape:transform-center-y="86.287059"
     d="m 43.909323,103.14062 -10.07226,0.0254 v 30.5332 H 225.89174 a 15.84,15.84 0 0 0 -1.59375,-30.5586 z" />
  <path
     id="path109-6"
     inkscape:transform-center-x="-86.372626"
     inkscape:transform-center-y="13.867321"
     d="m 103.17188,39.997612 -0.33594,75.583978 -0.19727,106.38868 a 15.85,15.85 0 0 0 30.25977,5.55468 l 0.83203,-187.527338 z" />
  <path
     id="path109-6-5"
     inkscape:transform-center-x="-86.372626"
     inkscape:transform-center-y="13.867321"
     d="M 118.35938,0.01796622 A 15.84,15.84 0 0 0 103.63672,12.473046 l -0.63867,144.074214 h 30.55859 L 134.20117,11.016016 A 15.84,15.84 0 0 0 118.35938,0.01796622 Z" />
</svg>
