<?xml version="1.0" standalone="no"?>
<!DOCTYPE svg PUBLIC "-//W3C//DTD SVG 20010904//EN"
 "http://www.w3.org/TR/2001/REC-SVG-20010904/DTD/svg10.dtd">
<svg version="1.0" xmlns="http://www.w3.org/2000/svg"
 width="100.000000pt" height="100.000000pt" viewBox="0 0 100.000000 100.000000"
 preserveAspectRatio="xMidYMid meet">

<g transform="translate(0.000000,100.000000) scale(0.100000,-0.100000)"
fill="#fff" stroke="none">
<path d="M267 954 c-4 -4 -7 -116 -7 -250 0 -236 0 -242 -21 -247 -15 -4 -20
-12 -17 -29 l3 -23 275 0 275 0 3 23 c3 17 -2 25 -17 29 -20 5 -21 12 -23 252
-3 211 -5 246 -18 246 -13 0 -15 -36 -18 -257 l-2 -258 -44 0 c-43 0 -44 1
-51 37 -9 50 -63 103 -105 103 -42 0 -96 -53 -105 -103 -7 -36 -8 -37 -51 -37
l-44 0 -2 257 c-3 243 -7 280 -31 257z m258 -420 c18 -7 45 -54 45 -79 0 -12
-13 -15 -70 -15 -77 0 -83 6 -55 60 19 37 44 47 80 34z"/>
<path d="M484 947 c-11 -29 0 -102 16 -102 19 0 22 106 3 112 -7 3 -16 -2 -19
-10z"/>
<path d="M364 927 c-10 -28 0 -82 16 -82 11 0 15 12 15 44 0 44 -19 68 -31 38z"/>
<path d="M604 927 c-10 -28 0 -82 16 -82 11 0 15 12 15 44 0 44 -19 68 -31 38z"/>
<path d="M60 740 c-19 -19 -20 -33 -20 -280 0 -327 -17 -300 188 -300 l149 0
-6 -37 c-5 -32 -11 -39 -36 -43 -18 -3 -30 -11 -30 -20 0 -13 29 -15 195 -15
166 0 195 2 195 15 0 9 -12 17 -30 20 -25 4 -31 11 -36 43 l-6 37 149 0 c205
0 188 -27 188 300 0 314 6 300 -120 300 -73 0 -80 -2 -80 -20 0 -17 8 -19 78
-22 l77 -3 3 -217 2 -218 -420 0 -420 0 2 218 3 217 78 3 c69 3 77 5 77 22 0
18 -7 20 -80 20 -67 0 -83 -3 -100 -20z m858 -517 c-3 -17 -31 -18 -418 -18
-387 0 -415 1 -418 18 -3 16 22 17 418 17 396 0 421 -1 418 -17z m-327 -105
l6 -38 -97 0 -97 0 4 28 c9 54 8 53 95 50 l83 -3 6 -37z"/>
<path d="M460 740 c-11 -11 -20 -29 -20 -40 0 -26 34 -60 60 -60 26 0 60 34
60 60 0 11 -9 29 -20 40 -11 11 -29 20 -40 20 -11 0 -29 -9 -40 -20z m56 -31
c10 -17 -13 -36 -27 -22 -12 12 -4 33 11 33 5 0 12 -5 16 -11z"/>
</g>
</svg>
