<?xml version="1.0" standalone="no"?>
<!DOCTYPE svg PUBLIC "-//W3C//DTD SVG 20010904//EN"
 "http://www.w3.org/TR/2001/REC-SVG-20010904/DTD/svg10.dtd">
<svg version="1.0" xmlns="http://www.w3.org/2000/svg"
 width="100.000000pt" height="100.000000pt" viewBox="0 0 100.000000 100.000000"
 preserveAspectRatio="xMidYMid meet">

<g transform="translate(0.000000,100.000000) scale(0.100000,-0.100000)"
fill="#fff" stroke="none">
<path d="M380 980 c-17 -17 -20 -33 -20 -110 l0 -90 -40 0 c-52 0 -93 -21
-108 -55 -8 -18 -12 -109 -12 -300 l0 -273 26 -31 c14 -17 32 -31 40 -31 8 0
14 -10 14 -25 0 -30 32 -65 60 -65 28 0 63 38 57 61 -5 18 2 19 103 19 101 0
108 -1 103 -19 -6 -23 29 -61 57 -61 28 0 60 35 60 65 0 15 6 25 14 25 8 0 26
14 40 31 l26 31 0 273 c0 191 -4 282 -12 300 -15 34 -56 55 -108 55 l-40 0 0
90 c0 124 -6 130 -140 130 -87 0 -103 -3 -120 -20z m218 -42 c3 -16 -7 -18
-97 -18 -78 0 -101 3 -101 13 0 25 13 28 104 25 77 -3 91 -6 94 -20z m2 -108
l0 -50 -100 0 -100 0 0 50 0 50 100 0 100 0 0 -50z m140 -110 c13 -13 20 -33
20 -60 l0 -40 -260 0 -260 0 0 40 c0 27 7 47 20 60 19 19 33 20 240 20 207 0
221 -1 240 -20z m20 -290 l0 -150 -260 0 -260 0 0 150 0 150 260 0 260 0 0
-150z m0 -230 c0 -27 -7 -47 -20 -60 -19 -19 -33 -20 -240 -20 -207 0 -221 1
-240 20 -13 13 -20 33 -20 60 l0 40 260 0 260 0 0 -40z m-404 -131 c10 -17
-13 -36 -27 -22 -12 12 -4 33 11 33 5 0 12 -5 16 -11z m320 0 c10 -17 -13 -36
-27 -22 -12 12 -4 33 11 33 5 0 12 -5 16 -11z"/>
<path d="M336 484 c-9 -8 -16 -24 -16 -34 0 -43 54 -65 84 -34 31 30 9 84 -34
84 -10 0 -26 -7 -34 -16z"/>
<path d="M587 430 l-48 -31 21 -30 22 -30 36 22 c62 37 64 41 39 72 l-22 27
-48 -30z"/>
</g>
</svg>
