<?xml version="1.0" standalone="no"?>
<!DOCTYPE svg PUBLIC "-//W3C//DTD SVG 20010904//EN"
 "http://www.w3.org/TR/2001/REC-SVG-20010904/DTD/svg10.dtd">
<svg version="1.0" xmlns="http://www.w3.org/2000/svg"
 width="100.000000pt" height="100.000000pt" viewBox="0 0 100.000000 100.000000"
 preserveAspectRatio="xMidYMid meet">

<g transform="translate(0.000000,100.000000) scale(0.100000,-0.100000)"
fill="#fff" stroke="none">
<path d="M60 700 l0 -220 30 0 30 0 0 -200 0 -200 380 0 380 0 0 200 0 200 30
0 30 0 0 220 0 220 -440 0 -440 0 0 -220z m840 0 l0 -180 -124 0 -124 0 -74
115 c-40 63 -75 115 -78 115 -3 0 -38 -52 -78 -115 l-74 -115 -124 0 -124 0 0
180 0 180 400 0 400 0 0 -180z m-332 -125 l61 -95 106 0 105 0 0 -180 0 -180
-120 0 -120 0 0 100 c0 110 -11 145 -51 166 -35 18 -63 18 -98 0 -40 -21 -51
-56 -51 -166 l0 -100 -120 0 -120 0 0 180 0 180 105 0 106 0 61 95 c33 52 64
95 68 95 4 0 35 -43 68 -95z m-28 -235 c17 -17 20 -33 20 -120 l0 -100 -60 0
-60 0 0 100 c0 87 3 103 20 120 11 11 29 20 40 20 11 0 29 -9 40 -20z"/>
<path d="M200 310 l0 -90 80 0 80 0 0 90 0 90 -80 0 -80 0 0 -90z m120 0 l0
-50 -40 0 -40 0 0 50 0 50 40 0 40 0 0 -50z"/>
<path d="M640 310 l0 -90 80 0 80 0 0 90 0 90 -80 0 -80 0 0 -90z m120 0 l0
-50 -40 0 -40 0 0 50 0 50 40 0 40 0 0 -50z"/>
</g>
</svg>
