<?xml version="1.0" standalone="no"?>
<!DOCTYPE svg PUBLIC "-//W3C//DTD SVG 20010904//EN"
 "http://www.w3.org/TR/2001/REC-SVG-20010904/DTD/svg10.dtd">
<svg version="1.0" xmlns="http://www.w3.org/2000/svg"
 width="100.000000pt" height="100.000000pt" viewBox="0 0 100.000000 100.000000"
 preserveAspectRatio="xMidYMid meet">

<g transform="translate(0.000000,100.000000) scale(0.100000,-0.100000)"
fill="#fff" stroke="none">
<path d="M197 906 c-62 -23 -116 -64 -148 -114 -37 -59 -51 -109 -47 -175 3
-44 6 -52 24 -55 19 -3 20 1 16 53 -8 102 48 197 143 241 93 44 177 28 260
-48 l55 -50 54 50 c31 30 69 55 92 61 115 32 230 -17 287 -124 17 -31 22 -57
22 -120 0 -71 -4 -89 -34 -149 -46 -93 -126 -174 -285 -289 l-136 -98 -122 88
c-134 95 -227 178 -259 230 -14 23 -28 33 -45 33 l-25 0 18 -32 c32 -57 145
-162 272 -254 68 -49 132 -95 142 -103 16 -11 22 -11 38 0 10 8 72 52 137 99
149 107 252 208 292 289 93 186 54 362 -97 445 -100 54 -225 42 -309 -29 l-42
-37 -42 36 c-70 60 -178 81 -261 52z"/>
<path d="M331 758 c-4 -13 -18 -77 -31 -143 l-24 -120 -23 53 c-12 28 -27 52
-33 52 -5 0 -19 -18 -30 -40 l-20 -39 -72 -3 c-57 -2 -73 -6 -73 -18 0 -12 17
-16 80 -18 73 -3 81 -1 96 20 l18 23 9 -25 c54 -142 64 -137 98 44 12 68 20
93 26 80 4 -11 19 -84 33 -164 36 -200 42 -203 100 -50 21 55 41 100 44 100 3
0 15 -23 26 -52 11 -28 25 -53 32 -55 7 -3 24 14 39 36 24 38 30 41 70 41 25
0 53 -6 64 -12 26 -17 55 0 55 32 0 32 -29 49 -55 32 -11 -6 -44 -12 -74 -12
-47 0 -57 -4 -73 -26 l-19 -26 -25 64 c-14 35 -31 63 -39 63 -12 0 -58 -99
-85 -180 -4 -12 -20 49 -40 159 -19 98 -36 185 -39 192 -8 21 -26 17 -35 -8z"/>
</g>
</svg>
